<?xml version="1.0" encoding="utf-8"?>
<svg viewBox="212.931 163.438 72 53.7" width="72" height="53.7" xmlns="http://www.w3.org/2000/svg">
  <path d="M 248.931 210.656 C 229.571 210.656 212.931 197.246 212.931 190.656 C 212.931 185.756 229.101 170.656 248.931 170.656 C 268.551 170.656 284.931 185.176 284.931 190.656 C 284.931 196.136 268.501 210.656 248.931 210.656 Z M 248.931 172.656 C 230.181 172.656 214.931 187.126 214.931 190.656 C 214.931 195.586 230.351 208.656 248.931 208.656 C 268.431 208.656 282.931 194.416 282.931 190.656 C 282.931 186.896 268.381 172.656 248.931 172.656 Z"/>
  <path d="M 260.811 192.336 C 259.518 201.483 248.808 205.799 241.534 200.106 C 234.259 194.413 235.876 182.979 244.444 179.526 C 245.87 178.951 247.393 178.656 248.931 178.656 C 251.257 178.666 253.529 179.361 255.461 180.656 C 251.104 183.069 250.993 189.294 255.261 191.86 C 256.264 192.463 257.411 192.783 258.581 192.786 C 259.346 192.772 260.101 192.619 260.811 192.336 Z"/>
  <line style="fill: rgb(216, 216, 216); stroke: rgb(0, 0, 0); stroke-miterlimit: 19; stroke-linecap: round; stroke-linejoin: round; stroke-width: 3px;" x1="279.491" y1="164.432" x2="220.547" y2="216.105" transform="matrix(0.99939, 0.034922, -0.034922, 0.99939, 6.778702, -8.596068)"/>
</svg>